<svg xmlns="http://www.w3.org/2000/svg" viewBox="0 0 201 201"><defs><style>.cls-1{opacity:0;}.cls-2,.cls-3{fill:none;stroke:#092370;stroke-miterlimit:10;}.cls-3{stroke-width:0.83px;}.cls-4{fill:#facd51;}</style></defs><title>15清洗</title><g id="图层_2" data-name="图层 2"><g id="图层_1-2" data-name="图层 1"><g class="cls-1"><path class="cls-2" d="M100.5.5h0a100,100,0,0,1,100,100h0a100,100,0,0,1-100,100h0a100,100,0,0,1-100-100h0A100,100,0,0,1,100.5.5Z"/><rect class="cls-2" x="33.83" y="33.83" width="133.33" height="133.33"/><rect class="cls-3" x="44.93" y="44.93" width="111.13" height="111.13"/></g><path class="cls-4" d="M112.41,81.61V48a3,3,0,0,0-3-3H91.61a3,3,0,0,0-3,3V81.61a3,3,0,0,1-3,3H51.92a3,3,0,0,0-3,3v9.84a3,3,0,0,0,3,3h1.91a3,3,0,0,1,3,3V153a3,3,0,0,0,3,3H69.7a3,3,0,0,0,3-3V127.33a3,3,0,0,1,3-3h1.91a3,3,0,0,1,3,3V153a3,3,0,0,0,3,3h9.84a3,3,0,0,0,3-3V127.33a3,3,0,0,1,3-3h1.91a3,3,0,0,1,3,3V153a3,3,0,0,0,3,3h9.84a3,3,0,0,0,3-3V127.33a3,3,0,0,1,3-3h1.91a3,3,0,0,1,3,3V153a3,3,0,0,0,3,3h9.84a3,3,0,0,0,3-3V103.52a3,3,0,0,1,3-3h1.91a3,3,0,0,0,3-3V87.64a3,3,0,0,0-3-3H115.42A3,3,0,0,1,112.41,81.61Z"/></g></g></svg>