<svg xmlns="http://www.w3.org/2000/svg" viewBox="0 0 201 201"><defs><style>.cls-1{opacity:0;}.cls-2,.cls-3{fill:none;stroke:#092370;stroke-miterlimit:10;}.cls-3{stroke-width:0.83px;}.cls-4{fill:#a375e9;}.cls-5{fill:#fff;}</style></defs><title>6数据校验</title><g id="图层_2" data-name="图层 2"><g id="图层_1-2" data-name="图层 1"><g class="cls-1"><path class="cls-2" d="M100.5.5h0a100,100,0,0,1,100,100h0a100,100,0,0,1-100,100h0a100,100,0,0,1-100-100h0A100,100,0,0,1,100.5.5Z"/><rect class="cls-2" x="33.83" y="33.83" width="133.33" height="133.33"/><rect class="cls-3" x="44.93" y="44.93" width="111.13" height="111.13"/></g><path class="cls-4" d="M150.42,44.93H50.77a5.24,5.24,0,0,0-5.27,5.32V150.74a5.24,5.24,0,0,0,5.27,5.32h99.44a5.24,5.24,0,0,0,5.27-5.32V50.26A5,5,0,0,0,150.42,44.93Z"/><path class="cls-5" d="M136.29,77.79a5.36,5.36,0,0,0-7.54.44L99,111.73l-16.9-15a5.36,5.36,0,0,0-7.54.44h0a5.36,5.36,0,0,0,.44,7.54l20.83,18.53a5.36,5.36,0,0,0,6.75.28,5.29,5.29,0,0,0,1.05-.9l33.13-37.25A5.36,5.36,0,0,0,136.29,77.79Z"/></g></g></svg>