<svg xmlns="http://www.w3.org/2000/svg" viewBox="0 0 201 201"><defs><style>.cls-1{opacity:0;}.cls-2,.cls-3{fill:none;stroke:#092370;stroke-miterlimit:10;}.cls-3{stroke-width:0.83px;}.cls-4{fill:#c5a9f1;}.cls-5{fill:#a375e9;}</style></defs><title>8个人服务</title><g id="图层_2" data-name="图层 2"><g id="图层_1-2" data-name="图层 1"><g class="cls-1"><path class="cls-2" d="M100.5.5h0a100,100,0,0,1,100,100h0a100,100,0,0,1-100,100h0a100,100,0,0,1-100-100h0A100,100,0,0,1,100.5.5Z"/><rect class="cls-2" x="33.83" y="33.83" width="133.33" height="133.33"/><rect class="cls-3" x="44.93" y="44.93" width="111.13" height="111.13"/></g><circle class="cls-4" cx="100.5" cy="78.54" r="28.71"/><path class="cls-5" d="M100.5,106.1c-27.34,0-50.16,13.23-55.56,45.06H156.07C150.66,119.33,127.84,106.1,100.5,106.1Z"/></g></g></svg>