<svg xmlns="http://www.w3.org/2000/svg" viewBox="0 0 201 201"><defs><style>.cls-1{opacity:0;}.cls-2,.cls-3{fill:none;stroke:#092370;stroke-miterlimit:10;}.cls-3{stroke-width:0.83px;}.cls-4{fill:#c5a9f1;}.cls-5{fill:#a375e9;}</style></defs><title>10大数据服务</title><g id="图层_2" data-name="图层 2"><g id="图层_1-2" data-name="图层 1"><g class="cls-1"><path class="cls-2" d="M100.5.5h0a100,100,0,0,1,100,100h0a100,100,0,0,1-100,100h0a100,100,0,0,1-100-100h0A100,100,0,0,1,100.5.5Z"/><rect class="cls-2" x="33.83" y="33.83" width="133.33" height="133.33"/><rect class="cls-3" x="44.93" y="44.93" width="111.13" height="111.13"/></g><path class="cls-4" d="M149.93,44.94H67.61a4.41,4.41,0,0,0,0,8.81h78v78.78a4.36,4.36,0,1,0,8.72,0V49.34A4.34,4.34,0,0,0,149.93,44.94Z"/><path class="cls-5" d="M133.57,64.06H51.07a4.34,4.34,0,0,0-4.36,4.41v83.19a4.34,4.34,0,0,0,4.36,4.41h82.32a4.34,4.34,0,0,0,4.36-4.41V68.47A4.1,4.1,0,0,0,133.57,64.06Z"/></g></g></svg>