<svg xmlns="http://www.w3.org/2000/svg" viewBox="0 0 201 201"><defs><style>.cls-1{opacity:0;}.cls-2,.cls-3{fill:none;stroke:#092370;stroke-miterlimit:10;}.cls-3{stroke-width:0.83px;}.cls-4{fill:#a375e9;}.cls-5{fill:#c5a9f1;}</style></defs><title>11个人源服务</title><g id="图层_2" data-name="图层 2"><g id="图层_1-2" data-name="图层 1"><g class="cls-1"><path class="cls-2" d="M100.5.5h0a100,100,0,0,1,100,100h0a100,100,0,0,1-100,100h0a100,100,0,0,1-100-100h0A100,100,0,0,1,100.5.5Z"/><rect class="cls-2" x="33.83" y="33.83" width="133.33" height="133.33"/><rect class="cls-3" x="44.93" y="44.93" width="111.13" height="111.13"/></g><rect class="cls-4" x="45.47" y="54.12" width="43.86" height="44.33"/><rect class="cls-4" x="45.47" y="111.74" width="43.86" height="44.33"/><polygon class="cls-5" points="124.52 44.94 93.5 76.28 124.52 107.62 155.53 76.28 124.52 44.94"/><rect class="cls-4" x="102.59" y="111.74" width="43.86" height="44.33"/></g></g></svg>