<svg xmlns="http://www.w3.org/2000/svg" viewBox="0 0 201 201"><defs><style>.cls-1{opacity:0;}.cls-2,.cls-3{fill:none;stroke:#092370;stroke-miterlimit:10;}.cls-3{stroke-width:0.83px;}.cls-4{fill:#dce6fe;}.cls-5{fill:#4f80f9;}</style></defs><title>12Python</title><g id="图层_2" data-name="图层 2"><g id="图层_1-2" data-name="图层 1"><g class="cls-1"><path class="cls-2" d="M100.5.5h0a100,100,0,0,1,100,100h0a100,100,0,0,1-100,100h0a100,100,0,0,1-100-100h0A100,100,0,0,1,100.5.5Z"/><rect class="cls-2" x="33.83" y="33.83" width="133.33" height="133.33"/><rect class="cls-3" x="44.93" y="44.93" width="111.13" height="111.13"/></g><rect class="cls-4" x="44.93" y="54.56" width="111.13" height="91.88" rx="0.87" ry="0.87"/><path class="cls-5" d="M121,81.2l6,.73c0,.52.1,1,.1,1.44q0,11.59,0,23.18c0,4.07-.91,7.82-3.81,10.86a16.52,16.52,0,0,1-12.59,4.65l-1.94-5.83c9.78-1.48,13.11-4,12.39-9.38-2.53.57-5,1.27-7.59,1.68-4.42.7-8.28-.88-10-4.1a8.84,8.84,0,0,1-1-3.78c-.11-5.33,0-10.66-.07-16a2.14,2.14,0,0,1,1.06-2.11c1.63-1,3.19-2.12,5-3.31,0,.52.08.9.08,1.28,0,5.49-.14,11,.12,16.45.21,4.58,2.73,6.14,7.16,4.94l.3-.11c4.79-1.54,4.79-1.54,4.78-6.56C121,90.64,121,86,121,81.2Z"/><path class="cls-5" d="M80.09,122.26c-2.14-1.41-4-2.57-5.74-3.83a1.71,1.71,0,0,1-.45-1.24q0-16.46,0-32.93a1.8,1.8,0,0,1,.57-1.33,23.79,23.79,0,0,1,9.46-4c4.73-.69,8.53.93,10.93,4.94,3.81,6.38,5.41,13.11,1.51,20.11-1.91,3.42-4.68,5.87-8.77,6.12a15.06,15.06,0,0,1-4.51-.66,18,18,0,0,1-3-1.39Zm-.34-27.38q0,1.6,0,3.19c0,4.54.56,5.24,5.07,6.36,3.57.89,6.14-.45,7.16-4a18.72,18.72,0,0,0-.36-11.91c-1-2.78-2.94-4-5.84-3.46a22.12,22.12,0,0,0-5.46,2.39c-.36.18-.53,1-.55,1.51C79.71,90.94,79.75,92.91,79.75,94.88Z"/></g></g></svg>