<svg xmlns="http://www.w3.org/2000/svg" viewBox="0 0 201 201"><defs><style>.cls-1{opacity:0;}.cls-2,.cls-3{fill:none;stroke:#092370;stroke-miterlimit:10;}.cls-3{stroke-width:0.83px;}.cls-4{fill:#dce6fe;}.cls-5{fill:#4f80f9;}</style></defs><title>14描述统计</title><g id="图层_2" data-name="图层 2"><g id="图层_1-2" data-name="图层 1"><g class="cls-1"><path class="cls-2" d="M100.5.5h0a100,100,0,0,1,100,100h0a100,100,0,0,1-100,100h0a100,100,0,0,1-100-100h0A100,100,0,0,1,100.5.5Z"/><rect class="cls-2" x="33.83" y="33.83" width="133.33" height="133.33"/><rect class="cls-3" x="44.93" y="44.93" width="111.13" height="111.13"/></g><rect class="cls-4" x="44.93" y="54.56" width="111.13" height="91.88" rx="0.87" ry="0.87"/><rect class="cls-5" x="74.4" y="82.72" width="5.65" height="41.01" rx="2" ry="2"/><rect class="cls-5" x="121.45" y="86.31" width="5.15" height="37.42" rx="2" ry="2"/><rect class="cls-5" x="97.8" y="77.27" width="5.65" height="46.47" rx="2" ry="2"/></g></g></svg>