<svg xmlns="http://www.w3.org/2000/svg" viewBox="0 0 201 201"><defs><style>.cls-1{opacity:0;}.cls-2,.cls-3,.cls-6{fill:none;}.cls-2,.cls-3{stroke:#092370;stroke-miterlimit:10;}.cls-3{stroke-width:0.83px;}.cls-4{fill:#facd51;}.cls-5{fill:#fce5a7;}.cls-6{stroke:#facd51;stroke-linecap:round;stroke-linejoin:round;stroke-width:10.96px;}</style></defs><title>16连接</title><g id="图层_2" data-name="图层 2"><g id="图层_1-2" data-name="图层 1"><g class="cls-1"><path class="cls-2" d="M100.5.5h0a100,100,0,0,1,100,100h0a100,100,0,0,1-100,100h0a100,100,0,0,1-100-100h0A100,100,0,0,1,100.5.5Z"/><rect class="cls-2" x="33.83" y="33.83" width="133.33" height="133.33"/><rect class="cls-3" x="44.93" y="44.93" width="111.13" height="111.13"/></g><circle class="cls-4" cx="102.42" cy="61.04" r="15.33"/><circle class="cls-5" cx="60.26" cy="130.01" r="15.33"/><circle class="cls-5" cx="140.74" cy="130.01" r="15.33"/><path class="cls-6" d="M51.91,103.62A48.44,48.44,0,0,1,74.41,65.84"/><path class="cls-6" d="M126,147.92a48.51,48.51,0,0,1-50.56.53"/><path class="cls-6" d="M130,68.61a48.38,48.38,0,0,1,18.61,35.83"/></g></g></svg>