<svg xmlns="http://www.w3.org/2000/svg" viewBox="0 0 201 201"><defs><style>.cls-1{opacity:0;}.cls-2,.cls-3{fill:none;stroke:#092370;stroke-miterlimit:10;}.cls-3{stroke-width:0.83px;}.cls-4{fill:#fce5a7;}.cls-5{fill:#facd51;}</style></defs><title>17工作包</title><g id="图层_2" data-name="图层 2"><g id="图层_1-2" data-name="图层 1"><g class="cls-1"><path class="cls-2" d="M100.5.5h0a100,100,0,0,1,100,100h0a100,100,0,0,1-100,100h0a100,100,0,0,1-100-100h0A100,100,0,0,1,100.5.5Z"/><rect class="cls-2" x="33.83" y="33.83" width="133.33" height="133.33"/><rect class="cls-3" x="44.93" y="44.93" width="111.13" height="111.13"/></g><path class="cls-4" d="M156.07,73.41c0-10.19-4.54-17.36-13.43-17.36H59.75c-8.88,0-14.82,7.18-14.82,17.36v16H156.07Z"/><path class="cls-5" d="M44.94,89.39v41.52c0,10.19,5,14,13.89,14h82.88c8.88,0,14.35-3.86,14.35-14V89.39Z"/></g></g></svg>