<svg xmlns="http://www.w3.org/2000/svg" viewBox="0 0 201 201"><defs><style>.cls-1{opacity:0;}.cls-2,.cls-3{fill:none;stroke:#092370;stroke-miterlimit:10;}.cls-3{stroke-width:0.83px;}.cls-4{fill:#9198b3;}</style></defs><title>18存储</title><g id="图层_2" data-name="图层 2"><g id="图层_1-2" data-name="图层 1"><g class="cls-1"><path class="cls-2" d="M100.5.5h0a100,100,0,0,1,100,100h0a100,100,0,0,1-100,100h0a100,100,0,0,1-100-100h0A100,100,0,0,1,100.5.5Z"/><rect class="cls-2" x="33.83" y="33.83" width="133.33" height="133.33"/><rect class="cls-3" x="44.93" y="44.93" width="111.13" height="111.13"/></g><path class="cls-4" d="M119.72,76.67a3.48,3.48,0,0,0,3.47-3.47v-7a3.47,3.47,0,1,0-6.95,0v7A3.48,3.48,0,0,0,119.72,76.67Z"/><path class="cls-4" d="M140.61,44.94H60.39A15.47,15.47,0,0,0,44.94,60.39v80.23a15.47,15.47,0,0,0,15.45,15.45h80.23a15.47,15.47,0,0,0,15.45-15.45V60.39A15.47,15.47,0,0,0,140.61,44.94Zm-11.9,7.75V80a3.32,3.32,0,0,1-3.31,3.31H75.6A3.32,3.32,0,0,1,72.29,80V52.69Zm19.6,87.92a7.71,7.71,0,0,1-7.7,7.7H60.39a7.71,7.71,0,0,1-7.7-7.7V60.39a7.71,7.71,0,0,1,7.7-7.7h4.15V80A11.08,11.08,0,0,0,75.6,91H125.4A11.08,11.08,0,0,0,136.47,80V52.69h4.15a7.71,7.71,0,0,1,7.7,7.7Z"/></g></g></svg>