<svg xmlns="http://www.w3.org/2000/svg" viewBox="0 0 201 201"><defs><style>.cls-1{opacity:0;}.cls-2,.cls-3{fill:none;stroke:#092370;stroke-miterlimit:10;}.cls-3{stroke-width:0.83px;}.cls-4{fill:#9198b3;}</style></defs><title>19导出</title><g id="图层_2" data-name="图层 2"><g id="图层_1-2" data-name="图层 1"><g class="cls-1"><path class="cls-2" d="M100.5.5h0a100,100,0,0,1,100,100h0a100,100,0,0,1-100,100h0a100,100,0,0,1-100-100h0A100,100,0,0,1,100.5.5Z"/><rect class="cls-2" x="33.83" y="33.83" width="133.33" height="133.33"/><rect class="cls-3" x="44.93" y="44.93" width="111.13" height="111.13"/></g><path class="cls-4" d="M138.79,69.74c-.11-7-4.94-10.87-12.88-11-2.6,0-5.21,0-8,0,0-1.41.06-2.27,0-3.14-.54-6.67-5-10.5-12.45-10.53q-24.13-.1-48.26,0C49.71,45.1,45,49.17,45,55.72q-.12,35.46,0,70.92c0,6.28,4.67,10.47,11.68,11,1.22.08,2.44.15,4.13.25,0,2.9-.13,5.62,0,8.32a10.09,10.09,0,0,0,9.85,9.56c8.58.25,17.16.3,25.75.25h13.35a3.62,3.62,0,0,0,3.8-3.38v-.19a3.62,3.62,0,0,0-3.8-3.38H96.48q-10.74,0-21.47,0c-5.66,0-6.53-.81-6.53-5.87q0-35.83,0-71.66c0-5.15.74-5.82,6.51-5.83q24.54,0,49.09,0c6.25,0,6.89.58,6.9,6.26q0,17.92,0,35.83c0,2.38.92,4.43,3.88,4.4s4-1.94,4-4.37C138.85,95.12,139,82.43,138.79,69.74Zm-29-11h-4.37c-10.49,0-21,0-31.48,0q-13.11.08-13.13,11.8c0,18.54,0,37.08,0,55.62v3.94c-6.23,1.07-8-.14-8-5.17q0-33.78,0-67.57c0-4.58,1-5.48,6.09-5.48q22.46,0,44.91,0C109.37,51.88,110.4,52.95,109.75,58.72Z"/><path class="cls-4" d="M118.33,100.39c-6.14.05-12.28,0-18.41,0s-12.56,0-18.83,0c-2.65,0-4.52.91-4.71,3.23-.2,2.59,1.82,3.82,4.54,3.83q18.83.08,37.66,0c2.66,0,4.68-1.15,4.45-3.87C122.82,101.1,120.91,100.37,118.33,100.39Z"/><path class="cls-4" d="M91.4,121c-4,0-8,0-12,0-1.69,0-2.89.91-3,3.23-.13,2.59,1.16,3.82,2.9,3.83,8,.06,16,.07,24,0,1.7,0,3-1.15,2.84-3.87-.14-2.47-1.35-3.21-3-3.18C99.24,121.05,95.32,121,91.4,121Z"/><path class="cls-4" d="M81.36,86.57q18.41,0,36.83,0c2.59,0,4.89-.81,4.82-3.55s-2.24-3.41-4.93-3.4c-6.14,0-12.28,0-18.41,0s-12,0-18,0c-2.86,0-5.25.66-5.27,3.49C76.39,85.72,78.73,86.57,81.36,86.57Z"/><path class="cls-4" d="M137.31,128.39v3.7c-5.05,0-9.56,0-14.31,0-2.78,0-5.5.37-5.53,3.82s2.74,3.82,5.5,3.8c5.23,0,10.46,0,14.3,0l0,.15v4.39c0,2.64,2.44,4.3,4.39,3l13.4-9.09a2.19,2.19,0,0,0,0-3.62l-13.4-9.09C139.75,124.09,137.31,125.74,137.31,128.39Z"/></g></g></svg>