<svg xmlns="http://www.w3.org/2000/svg" viewBox="0 0 201 201"><defs><style>.cls-1{opacity:0;}.cls-2,.cls-3{fill:none;stroke:#092370;stroke-miterlimit:10;}.cls-3{stroke-width:0.83px;}.cls-4{fill:#9198b3;}</style></defs><title>20执行</title><g id="图层_2" data-name="图层 2"><g id="图层_1-2" data-name="图层 1"><g class="cls-1"><path class="cls-2" d="M100.5.5h0a100,100,0,0,1,100,100h0a100,100,0,0,1-100,100h0a100,100,0,0,1-100-100h0A100,100,0,0,1,100.5.5Z"/><rect class="cls-2" x="33.83" y="33.83" width="133.33" height="133.33"/><rect class="cls-3" x="44.93" y="44.93" width="111.13" height="111.13"/></g><path class="cls-4" d="M49.12,97.56q0-19.34,0-38.69C49.13,50.62,54.65,45,62.89,45Q91.45,44.9,120,45c8.07,0,13.73,5.57,13.83,13.64.12,9.07,0,18.13,0,27.2,0,3.1-1.42,4.78-3.83,4.76s-3.72-1.67-3.73-4.86c0-8.46,0-16.93,0-25.39,0-6.07-1.72-7.8-7.69-7.8H64.19c-5.75,0-7.6,1.85-7.6,7.61q0,37.78,0,75.56c0,5.81,1.74,7.53,7.57,7.53H83.5c.71,0,1.41,0,2.11,0,2.39.15,3.8,1.47,3.8,3.83a3.37,3.37,0,0,1-3.65,3.61c-8.56,0-17.14.28-25.68-.15-6.21-.31-10.88-6.09-10.92-12.77-.09-13.4,0-26.8,0-40.2Z"/><path class="cls-4" d="M151.88,129.77a26.42,26.42,0,1,1-26.34-26.61A26.44,26.44,0,0,1,151.88,129.77Zm-26.56,18.74a18.89,18.89,0,1,0,.13-37.78,18.89,18.89,0,0,0-.13,37.78Z"/><path class="cls-4" d="M91.26,63.9c6.84,0,13.68,0,20.53,0,3.23,0,4.78,1.24,4.75,3.7s-1.63,3.73-4.8,3.74q-20.22,0-40.45,0c-3.18,0-5.11-1.6-5-3.95s1.82-3.48,5-3.49Q81.3,63.89,91.26,63.9Z"/><path class="cls-4" d="M85.51,92.32c-4.84,0-9.67,0-14.51,0-2.57,0-4.35-1-4.66-3.68-.27-2.25,1.74-4,4.67-4q14.66-.07,29.32,0c2.47,0,4.41.86,4.6,3.69.16,2.46-1.52,3.91-4.61,3.94C95.38,92.36,90.44,92.32,85.51,92.32Z"/><path class="cls-4" d="M75.31,113.37c-1.91-.09-3.83-.09-5.72-.29a3.4,3.4,0,0,1-3.24-3.7A3.46,3.46,0,0,1,70,105.75c3.62-.08,7.24-.07,10.86,0a3.4,3.4,0,0,1,3.64,3.6,3.32,3.32,0,0,1-3.17,3.72C79.34,113.28,77.32,113.28,75.31,113.37Z"/><path class="cls-4" d="M121.35,129.65c0-1.91-.09-3.82,0-5.72.16-2.67,1.88-3.58,4.06-2.08,2.56,1.76,5,3.68,7.47,5.57,1.85,1.42,1.94,3,.05,4.44-2.46,1.9-4.94,3.79-7.51,5.54-2.22,1.52-3.84.65-4.1-2,0-.2,0-.4,0-.6q0-2.56,0-5.12Z"/></g></g></svg>