<svg xmlns="http://www.w3.org/2000/svg" viewBox="0 0 201 201"><defs><style>.cls-1{opacity:0;}.cls-2,.cls-3{fill:none;stroke:#092370;stroke-miterlimit:10;}.cls-3{stroke-width:0.83px;}.cls-4{fill:#4f80f9;}.cls-5{fill:#95b3fb;}</style></defs><title>4.纵向分割</title><g id="图层_2" data-name="图层 2"><g id="图层_1-2" data-name="图层 1"><g class="cls-1"><path class="cls-2" d="M100.5.5h0a100,100,0,0,1,100,100h0a100,100,0,0,1-100,100h0a100,100,0,0,1-100-100h0A100,100,0,0,1,100.5.5Z"/><rect class="cls-2" x="33.83" y="33.83" width="133.33" height="133.33"/><rect class="cls-3" x="44.93" y="44.93" width="111.13" height="111.13"/></g><path class="cls-4" d="M146.8,44.94v65c-1.11.09-2,.23-2.91.23-28.84,0-57.68,0-86.53.06-2.2,0-3-.57-3-3.42,0-12.91-.13-25.82-.19-38.74,0-7.6,0-15.2,0-23.09Zm-5.24,25.79H59.78V83.91h81.78Zm0-19.74H59.77V64.05h81.78ZM59.79,90.38v13.19h81.66V90.38Z"/><path class="cls-5" d="M128.39,117.34v29l.67.46,9.34-9.16,3.87,4.65c-4,4-8,8.8-12.8,12.58-1.75,1.38-6.27,1.63-7.91.34-4.94-3.89-9.08-8.79-13.57-13.33l4.69-5,8.5,10.2,1-.63V117.34Z"/><path class="cls-5" d="M72.19,146.35v-29h6v29l.78.5,9.4-9.16,4.43,4.22c-4.56,4.56-8.66,9.36-13.54,13.16-1.72,1.34-6.22,1.37-7.93,0-4.88-3.81-9-8.63-13.61-13.28L61.94,138l.78-.84,8,10.22Z"/><rect class="cls-4" x="70.53" y="33.32" width="60.6" height="86.49" transform="translate(177.4 -24.26) rotate(90)"/></g></g></svg>