<svg xmlns="http://www.w3.org/2000/svg" viewBox="0 0 201 201"><defs><style>.cls-1{opacity:0;}.cls-2,.cls-3{fill:none;stroke:#092370;stroke-miterlimit:10;}.cls-3{stroke-width:0.83px;}.cls-4{fill:#a375e9;}.cls-5{fill:#c5a9f1;}</style></defs><title>7单键查询</title><g id="图层_2" data-name="图层 2"><g id="图层_1-2" data-name="图层 1"><g class="cls-1"><path class="cls-2" d="M100.5.5h0a100,100,0,0,1,100,100h0a100,100,0,0,1-100,100h0a100,100,0,0,1-100-100h0A100,100,0,0,1,100.5.5Z"/><rect class="cls-2" x="33.83" y="33.83" width="133.33" height="133.33"/><rect class="cls-3" x="44.93" y="44.93" width="111.13" height="111.13"/></g><path class="cls-4" d="M105.32,125.61,85.67,145.47,56,115.49,75.66,95.63a5.34,5.34,0,0,0,0-7.49,5.21,5.21,0,0,0-7.42,0L48.59,108a10.68,10.68,0,0,0,0,15l29.66,30a10.41,10.41,0,0,0,14.83,0l19.65-19.86a5.34,5.34,0,0,0,0-7.49A5.21,5.21,0,0,0,105.32,125.61ZM152.41,78,122.75,48a10.41,10.41,0,0,0-14.83,0L88.26,67.9A5.34,5.34,0,0,0,86.91,73a5.27,5.27,0,0,0,3.71,3.75,5.21,5.21,0,0,0,5.07-1.37l19.65-19.86,29.66,30-19.65,19.86a5.34,5.34,0,0,0,0,7.49,5.21,5.21,0,0,0,7.42,0L152.41,93a10.68,10.68,0,0,0,0-15Z"/><path class="cls-5" d="M111.62,89.26a5.2,5.2,0,0,0-7.42,0l-14.83,15a5.34,5.34,0,0,0,0,7.49,5.21,5.21,0,0,0,7.42,0l14.83-15A5.34,5.34,0,0,0,111.62,89.26Z"/></g></g></svg>