<svg xmlns="http://www.w3.org/2000/svg" viewBox="0 0 201 201"><defs><style>.cls-1{opacity:0;}.cls-2,.cls-3{fill:none;stroke:#092370;stroke-miterlimit:10;}.cls-3{stroke-width:0.83px;}.cls-4{fill:#c5a9f1;}.cls-5{fill:#a375e9;}</style></defs><title>9外部服务</title><g id="图层_2" data-name="图层 2"><g id="图层_1-2" data-name="图层 1"><g class="cls-1"><path class="cls-2" d="M100.5.5h0a100,100,0,0,1,100,100h0a100,100,0,0,1-100,100h0a100,100,0,0,1-100-100h0A100,100,0,0,1,100.5.5Z"/><rect class="cls-2" x="33.83" y="33.83" width="133.33" height="133.33"/><rect class="cls-3" x="44.93" y="44.93" width="111.13" height="111.13"/></g><path class="cls-4" d="M100.5,61C78.76,45.72,58.13,40.34,49.23,49.24S45.72,78.77,61,100.5A168.25,168.25,0,0,1,100.5,61Z"/><path class="cls-4" d="M121.9,121.9A163.41,163.41,0,0,1,100.5,140c21.74,15.28,42.37,20.66,51.27,11.76s3.51-29.53-11.77-51.26A163.45,163.45,0,0,1,121.9,121.9Z"/><path class="cls-5" d="M140,100.5c15.28-21.73,20.66-42.37,11.77-51.27S122.24,45.72,100.5,61a163.41,163.41,0,0,1,21.4,18.1A163.45,163.45,0,0,1,140,100.5Z"/><path class="cls-5" d="M61,100.5c-15.28,21.73-20.66,42.37-11.77,51.26S78.76,155.28,100.5,140a163.49,163.49,0,0,1-21.4-18.1A163.45,163.45,0,0,1,61,100.5Z"/><path class="cls-5" d="M140,100.5a163.45,163.45,0,0,0-18.1-21.4A163.41,163.41,0,0,0,100.5,61,168.25,168.25,0,0,0,61,100.5a163.45,163.45,0,0,0,18.1,21.4A163.49,163.49,0,0,0,100.5,140a163.41,163.41,0,0,0,21.4-18.1A163.45,163.45,0,0,0,140,100.5Zm-40.28,8a8,8,0,1,1,8-8A8,8,0,0,1,99.72,108.46Z"/></g></g></svg>