<svg xmlns="http://www.w3.org/2000/svg" xmlns:xlink="http://www.w3.org/1999/xlink" viewBox="0 0 201 201"><defs><style>.cls-1{opacity:0;}.cls-2,.cls-3{fill:none;stroke:#092370;stroke-miterlimit:10;}.cls-3{stroke-width:0.83px;}.cls-4{fill:url(#未命名的渐变_59);}.cls-5{fill:url(#未命名的渐变_6);}.cls-6{fill:url(#未命名的渐变_6-2);}.cls-7{fill:url(#未命名的渐变_62);}.cls-8{fill:url(#未命名的渐变_62-2);}.cls-9{fill:url(#未命名的渐变_62-3);}.cls-10{fill:url(#未命名的渐变_62-4);}.cls-11{fill:url(#未命名的渐变_6-3);}</style><linearGradient id="未命名的渐变_59" x1="44.93" y1="87" x2="144.9" y2="87" gradientUnits="userSpaceOnUse"><stop offset="0" stop-color="#9eb9ff"/><stop offset="1" stop-color="#849ff5"/></linearGradient><linearGradient id="未命名的渐变_6" x1="44.93" y1="59.23" x2="144.9" y2="59.23" gradientUnits="userSpaceOnUse"><stop offset="0" stop-color="#e6edff"/><stop offset="1" stop-color="#abc2ff"/></linearGradient><linearGradient id="未命名的渐变_6-2" x1="44.93" y1="114.77" x2="144.9" y2="114.77" gradientTransform="translate(-19.85 209.68) rotate(-90)" xlink:href="#未命名的渐变_6"/><linearGradient id="未命名的渐变_62" x1="56.04" y1="59.23" x2="78.26" y2="59.23" gradientUnits="userSpaceOnUse"><stop offset="0" stop-color="#4a78ff"/><stop offset="1" stop-color="#3f71ff"/></linearGradient><linearGradient id="未命名的渐变_62-2" x1="56.04" y1="87" x2="78.26" y2="87" xlink:href="#未命名的渐变_62"/><linearGradient id="未命名的渐变_62-3" x1="56.04" y1="114.77" x2="78.26" y2="114.77" xlink:href="#未命名的渐变_62"/><linearGradient id="未命名的渐变_62-4" x1="2414.35" y1="-550.36" x2="2484.55" y2="-550.36" gradientTransform="translate(-424.82 -2328.9) rotate(90)" xlink:href="#未命名的渐变_62"/><linearGradient id="未命名的渐变_6-3" x1="125.53" y1="103.43" x2="125.53" y2="137.68" xlink:href="#未命名的渐变_6"/></defs><title>侧边栏测试任务</title><g id="图层_2" data-name="图层 2"><g id="图层_1-2" data-name="图层 1"><g class="cls-1"><path class="cls-2" d="M100.5.5h0a100,100,0,0,1,100,100h0a100,100,0,0,1-100,100h0a100,100,0,0,1-100-100h0A100,100,0,0,1,100.5.5Z"/><rect class="cls-2" x="33.83" y="33.83" width="133.33" height="133.33"/><rect class="cls-3" x="44.93" y="44.93" width="111.13" height="111.13"/></g><rect class="cls-4" x="44.93" y="73.11" width="99.97" height="27.77"/><path class="cls-5" d="M45.93,45.34h98a1,1,0,0,1,1,1V73.11a0,0,0,0,1,0,0h-100a0,0,0,0,1,0,0V46.34A1,1,0,0,1,45.93,45.34Z"/><path class="cls-6" d="M81,64.78H107.8a1,1,0,0,1,1,1v98a1,1,0,0,1-1,1H81a0,0,0,0,1,0,0v-100A0,0,0,0,1,81,64.78Z" transform="translate(209.68 19.85) rotate(90)"/><rect class="cls-7" x="56.04" y="53.68" width="22.21" height="11.11" rx="1" ry="1"/><rect class="cls-8" x="56.04" y="81.44" width="22.21" height="11.11" rx="1" ry="1"/><rect class="cls-9" x="56.04" y="109.21" width="22.21" height="11.11" rx="1" ry="1"/><path class="cls-10" d="M156.07,137.61V103.5a1,1,0,0,0-.5-.87L126,85.59a1,1,0,0,0-1,0L95.5,102.64a1,1,0,0,0-.5.87v34.1a1,1,0,0,0,.5.87L125,155.52a1,1,0,0,0,1,0l29.53-17.05A1,1,0,0,0,156.07,137.61Z"/><path class="cls-11" d="M132.11,104.24h0a2.53,2.53,0,0,1,4.26,2.46h0A9,9,0,0,0,143,118.09h0a2.53,2.53,0,0,1,0,4.92h0a9,9,0,0,0-6.58,11.39h0a2.53,2.53,0,0,1-4.26,2.46h0a9,9,0,0,0-13.15,0h0a2.53,2.53,0,0,1-4.26-2.46h0A9,9,0,0,0,108.12,123h0a2.53,2.53,0,0,1,0-4.92h0a9,9,0,0,0,6.58-11.39h0a2.53,2.53,0,0,1,4.26-2.46h0A9,9,0,0,0,132.11,104.24Zm-6.58,8.24a8.07,8.07,0,1,0,8.07,8.07A8.07,8.07,0,0,0,125.53,112.48Z"/></g></g></svg>