<svg xmlns="http://www.w3.org/2000/svg" xmlns:xlink="http://www.w3.org/1999/xlink" viewBox="0 0 201 201"><defs><style>.cls-1{opacity:0;}.cls-2,.cls-3{fill:none;stroke:#092370;stroke-miterlimit:10;}.cls-3{stroke-width:0.83px;}.cls-4{fill:url(#未命名的渐变_6);}.cls-5{fill:url(#未命名的渐变_59);}.cls-6{fill:url(#未命名的渐变_19);}</style><linearGradient id="未命名的渐变_6" x1="44.94" y1="80.03" x2="150.22" y2="80.03" gradientUnits="userSpaceOnUse"><stop offset="0" stop-color="#e6edff"/><stop offset="1" stop-color="#abc2ff"/></linearGradient><linearGradient id="未命名的渐变_59" x1="44.93" y1="132.67" x2="74.18" y2="132.67" gradientUnits="userSpaceOnUse"><stop offset="0" stop-color="#9eb9ff"/><stop offset="1" stop-color="#849ff5"/></linearGradient><linearGradient id="未命名的渐变_19" x1="85.88" y1="135.59" x2="156.07" y2="135.59" gradientUnits="userSpaceOnUse"><stop offset="0" stop-color="#7094ff"/><stop offset="1" stop-color="#4874f0"/></linearGradient></defs><title>侧边栏模型跑批</title><g id="图层_2" data-name="图层 2"><g id="图层_1-2" data-name="图层 1"><g class="cls-1"><path class="cls-2" d="M100.5.5h0a100,100,0,0,1,100,100h0a100,100,0,0,1-100,100h0a100,100,0,0,1-100-100h0A100,100,0,0,1,100.5.5Z"/><rect class="cls-2" x="33.83" y="33.83" width="133.33" height="133.33"/><rect class="cls-3" x="44.93" y="44.93" width="111.13" height="111.13"/></g><path class="cls-4" d="M73.18,74.18H45.94a1,1,0,0,1-1-1V51.78a1,1,0,0,1,1-1H73.18a1,1,0,0,1,1,1v21.4A1,1,0,0,1,73.18,74.18Zm77-1V51.78a1,1,0,0,0-1-1H86.88a1,1,0,0,0-1,1v21.4a1,1,0,0,0,1,1h62.34A1,1,0,0,0,150.22,73.18Zm-76,35.09V86.88a1,1,0,0,0-1-1H45.94a1,1,0,0,0-1,1v21.4a1,1,0,0,0,1,1H73.18A1,1,0,0,0,74.18,108.27Zm76,0V86.88a1,1,0,0,0-1-1H86.88a1,1,0,0,0-1,1v21.4a1,1,0,0,0,1,1h62.34A1,1,0,0,0,150.22,108.27Z"/><rect class="cls-5" x="44.93" y="120.97" width="29.24" height="23.4" rx="1" ry="1"/><path class="cls-6" d="M144.37,135.81v-9a5.85,5.85,0,0,0-5.85-5.85H91.73a5.85,5.85,0,0,0-5.85,5.85v11.7a5.85,5.85,0,0,0,5.85,5.85h37c19.43,0,27.36,5.85,27.36,5.85S152.91,140.85,144.37,135.81Z"/></g></g></svg>