<svg xmlns="http://www.w3.org/2000/svg" xmlns:xlink="http://www.w3.org/1999/xlink" viewBox="0 0 201 201"><defs><style>.cls-1{opacity:0;}.cls-2,.cls-3{fill:none;stroke:#092370;stroke-miterlimit:10;}.cls-3{stroke-width:0.83px;}.cls-4{fill:url(#未命名的渐变_6);}.cls-5{fill:url(#未命名的渐变_59);}.cls-6{fill:url(#未命名的渐变_6-2);}</style><linearGradient id="未命名的渐变_6" x1="52.07" y1="128.01" x2="148.93" y2="128.01" gradientUnits="userSpaceOnUse"><stop offset="0" stop-color="#e6edff"/><stop offset="1" stop-color="#abc2ff"/></linearGradient><linearGradient id="未命名的渐变_59" x1="52.07" y1="100.5" x2="148.93" y2="100.5" gradientUnits="userSpaceOnUse"><stop offset="0" stop-color="#9eb9ff"/><stop offset="1" stop-color="#849ff5"/></linearGradient><linearGradient id="未命名的渐变_6-2" x1="52.07" y1="72.99" x2="148.93" y2="72.99" xlink:href="#未命名的渐变_6"/></defs><title>侧边栏数据集</title><g id="图层_2" data-name="图层 2"><g id="图层_1-2" data-name="图层 1"><g class="cls-1"><path class="cls-2" d="M100.5.5h0a100,100,0,0,1,100,100h0a100,100,0,0,1-100,100h0a100,100,0,0,1-100-100h0A100,100,0,0,1,100.5.5Z"/><rect class="cls-2" x="33.83" y="33.83" width="133.33" height="133.33"/><rect class="cls-3" x="44.93" y="44.93" width="111.13" height="111.13"/></g><polygon class="cls-4" points="52.07 128.01 100.34 99.96 148.93 128.01 100.66 156.06 52.07 128.01"/><polygon class="cls-5" points="52.07 100.5 100.34 72.45 148.93 100.5 100.66 128.55 52.07 100.5"/><polygon class="cls-6" points="52.07 72.99 100.34 44.94 148.93 72.99 100.66 101.04 52.07 72.99"/></g></g></svg>