<svg xmlns="http://www.w3.org/2000/svg" xmlns:xlink="http://www.w3.org/1999/xlink" viewBox="0 0 201 201"><defs><style>.cls-1{opacity:0;}.cls-2,.cls-3{fill:none;stroke:#092370;stroke-miterlimit:10;}.cls-3{stroke-width:0.83px;}.cls-4{fill:url(#未命名的渐变_6);}.cls-5{fill:url(#未命名的渐变_59);}.cls-6{fill:url(#未命名的渐变_19);}</style><linearGradient id="未命名的渐变_6" x1="63.76" y1="57.45" x2="127.58" y2="132.24" gradientUnits="userSpaceOnUse"><stop offset="0" stop-color="#e6edff"/><stop offset="1" stop-color="#abc2ff"/></linearGradient><linearGradient id="未命名的渐变_59" x1="93.93" y1="50.02" x2="118.21" y2="78.47" gradientUnits="userSpaceOnUse"><stop offset="0" stop-color="#9eb9ff"/><stop offset="1" stop-color="#849ff5"/></linearGradient><linearGradient id="未命名的渐变_19" x1="100.5" y1="81.87" x2="154.17" y2="81.87" gradientUnits="userSpaceOnUse"><stop offset="0" stop-color="#7094ff"/><stop offset="1" stop-color="#4874f0"/></linearGradient></defs><title>侧边栏notebook</title><g id="图层_2" data-name="图层 2"><g id="图层_1-2" data-name="图层 1"><g class="cls-1"><path class="cls-2" d="M100.5.5h0a100,100,0,0,1,100,100h0a100,100,0,0,1-100,100h0a100,100,0,0,1-100-100h0A100,100,0,0,1,100.5.5Z"/><rect class="cls-2" x="33.83" y="33.83" width="133.33" height="133.33"/><rect class="cls-3" x="44.93" y="44.93" width="111.13" height="111.13"/></g><circle class="cls-4" cx="100.5" cy="100.5" r="55.57"/><path class="cls-5" d="M141.72,63.24a55.42,55.42,0,0,0-41.22-18.3V100.5Z"/><path class="cls-6" d="M154.17,86.07a55.45,55.45,0,0,0-12.45-22.83L100.5,100.5Z"/></g></g></svg>