<svg xmlns="http://www.w3.org/2000/svg" xmlns:xlink="http://www.w3.org/1999/xlink" viewBox="0 0 201 201"><defs><style>.cls-1{opacity:0;}.cls-2,.cls-3{fill:none;stroke:#092370;stroke-miterlimit:10;}.cls-3{stroke-width:0.83px;}.cls-4{fill:url(#未命名的渐变_59);}.cls-5{fill:url(#未命名的渐变_62);}.cls-6{fill:url(#未命名的渐变_6);}</style><linearGradient id="未命名的渐变_59" x1="44.93" y1="100.5" x2="156.07" y2="100.5" gradientUnits="userSpaceOnUse"><stop offset="0" stop-color="#9eb9ff"/><stop offset="1" stop-color="#849ff5"/></linearGradient><linearGradient id="未命名的渐变_62" x1="61.6" y1="133.84" x2="139.4" y2="133.84" gradientUnits="userSpaceOnUse"><stop offset="0" stop-color="#4a78ff"/><stop offset="1" stop-color="#3f71ff"/></linearGradient><linearGradient id="未命名的渐变_6" x1="61.6" y1="67.16" x2="139.4" y2="67.16" gradientUnits="userSpaceOnUse"><stop offset="0" stop-color="#e6edff"/><stop offset="1" stop-color="#abc2ff"/></linearGradient></defs><title>侧边栏数据分析</title><g id="图层_2" data-name="图层 2"><g id="图层_1-2" data-name="图层 1"><g class="cls-1"><path class="cls-2" d="M100.5.5h0a100,100,0,0,1,100,100h0a100,100,0,0,1-100,100h0a100,100,0,0,1-100-100h0A100,100,0,0,1,100.5.5Z"/><rect class="cls-2" x="33.83" y="33.83" width="133.33" height="133.33"/><rect class="cls-3" x="44.93" y="44.93" width="111.13" height="111.13"/></g><rect class="cls-4" x="44.93" y="72.72" width="111.13" height="55.56" rx="1" ry="1"/><rect class="cls-5" x="61.6" y="111.61" width="77.79" height="44.45" rx="4" ry="4"/><path class="cls-6" d="M98.12,88.77,62.8,69.15a2.25,2.25,0,0,1,0-4L98.12,45.55a4.93,4.93,0,0,1,4.77,0L138.2,65.17a2.25,2.25,0,0,1,0,4L102.88,88.77A4.93,4.93,0,0,1,98.12,88.77Z"/></g></g></svg>