<svg xmlns="http://www.w3.org/2000/svg" viewBox="0 0 201 201"><defs><style>.cls-1{opacity:0;}.cls-2,.cls-3{fill:none;stroke:#092370;stroke-miterlimit:10;}.cls-3{stroke-width:0.83px;}.cls-4{fill:#c5a9f1;}.cls-5{fill:#a375e9;}</style></defs><title>5文件数据</title><g id="图层_2" data-name="图层 2"><g id="图层_1-2" data-name="图层 1"><g class="cls-1"><path class="cls-2" d="M100.5.5h0a100,100,0,0,1,100,100h0a100,100,0,0,1-100,100h0a100,100,0,0,1-100-100h0A100,100,0,0,1,100.5.5Z"/><rect class="cls-2" x="33.83" y="33.83" width="133.33" height="133.33"/><rect class="cls-3" x="44.93" y="44.93" width="111.13" height="111.13"/></g><polygon class="cls-4" points="109.15 44.94 50.33 44.94 50.33 117.63 88.76 117.63 88.76 82.77 109.16 82.77 109.16 44.94 109.15 44.94"/><polygon class="cls-5" points="150.66 88.1 115.07 88.1 94.69 88.1 94.67 122.95 94.67 156.06 150.67 156.06 150.67 88.1 150.66 88.1"/></g></g></svg>